Coordinates
version=1
nRows=17
nColumns=36
inDegrees=yes

Units are S.I. units (second, meters, Newtons, ...)
If the header above contains a line with 'inDegrees', this indicates whether rotational values are in degrees (yes) or radians (no).

endheader
time	pelvis_tilt	pelvis_list	pelvis_rotation	pelvis_tx	pelvis_ty	pelvis_tz	hip_flexion_r	hip_adduction_r	hip_rotation_r	knee_angle_r	knee_angle_r_beta	ankle_angle_r	subtalar_angle_r	mtp_angle_r	hip_flexion_l	hip_adduction_l	hip_rotation_l	knee_angle_l	knee_angle_l_beta	ankle_angle_l	subtalar_angle_l	mtp_angle_l	lumbar_extension	lumbar_bending	lumbar_rotation	arm_flex_r	arm_add_r	arm_rot_r	elbow_flex_r	pro_sup_r	arm_flex_l	arm_add_l	arm_rot_l	elbow_flex_l	pro_sup_l
      4.37083330	    -17.09319313	     -1.60682544	      3.20003383	      0.53865230	      0.84759322	      0.04042499	     41.10630221	      0.22118499	      8.37434381	     44.96357650	      0.78476245	      6.67013191	    -30.16887931	     -7.49999987	     41.76373314	     -5.33739134	      5.40040433	     43.99350947	      0.76783159	     -2.20408558	    -31.54372956	     -7.49999987	    -28.51412705	      1.14657667	      1.80761653	      3.77965924	    -15.39469506	    -32.82134447	     99.42230357	     87.94267761	     -2.42867859	    -14.49807193	    -41.75386976	     99.13125808	     82.79773522
      4.37500000	    -17.34659333	     -1.67898569	      3.29308685	      0.53858382	      0.85059105	      0.04215992	     40.86371849	      0.22324509	      8.25613303	     44.20731560	      0.77156321	      6.66771392	    -29.93406823	     -7.49999987	     41.60844349	     -5.35126316	      5.47268072	     43.29688747	      0.75567324	     -2.71021366	    -31.68415999	     -7.49999987	    -28.04339564	      1.14300447	      1.73486435	      3.56140050	    -15.16975937	    -32.87561217	     99.32575397	     85.52658139	     -2.54411572	    -14.44557575	    -41.74558781	     99.47296634	     81.02999696
      4.37916670	    -17.66143045	     -1.71887405	      3.30459686	      0.54105807	      0.85081271	      0.04026809	     40.69921835	      0.17255661	      8.20198342	     43.50686433	      0.75933803	      6.54639775	    -29.75951524	     -7.49999987	     41.54237952	     -5.30936031	      5.49969557	     42.69928082	      0.74524304	     -3.02321688	    -31.71383237	     -7.49999987	    -27.36532431	      1.12323913	      1.67473848	      3.34839407	    -14.99089618	    -33.03735566	     98.93096088	     84.40471095	     -2.75881764	    -14.41452399	    -41.70642559	     99.49234601	     80.25784401
      4.38333330	    -18.10479457	     -1.74910812	      3.34697227	      0.54092657	      0.85148976	      0.04340927	     40.77549361	      0.23082275	      8.20600211	     42.90445420	      0.74882399	      6.14002103	    -30.01255251	     -7.49999987	     41.67974351	     -5.36172070	      5.47975784	     42.12760038	      0.73526533	     -3.07888806	    -31.39057068	     -7.49999987	    -26.63942287	      1.00118010	      1.61376173	      3.16666232	    -14.81307001	    -33.33671336	     98.60542028	     88.10021666	     -2.79212152	    -14.65290732	    -41.81128410	     99.45336167	     84.19451441
      4.38750000	    -18.43120614	     -1.79221865	      3.35449310	      0.54424129	      0.85286775	      0.04217722	     40.58092491	      0.27238134	      8.20620026	     42.16461299	      0.73591132	      6.07750936	    -29.87582505	     -7.49999987	     41.55097032	     -5.45044554	      5.40017929	     41.43928773	      0.72325201	     -3.45345012	    -31.35176641	     -7.49999987	    -25.98634044	      1.01188636	      1.59737794	      2.83981077	    -14.58643557	    -33.52025187	     98.45667451	     86.21200058	     -3.11863922	    -14.63961499	    -41.91457718	     99.57068585	     82.70905067
      4.39166670	    -18.71926808	     -1.79378711	      3.36765361	      0.54592444	      0.85626818	      0.03867084	     40.32686571	      0.10328150	      8.17295804	     41.36129374	      0.72189076	      5.81611472	    -29.70153904	     -7.49999987	     41.37522238	     -5.41956069	      5.29265120	     40.77000030	      0.71157074	     -3.55535000	    -31.12636720	     -7.49999987	    -25.45351489	      1.04671189	      1.50807196	      2.53061315	    -14.48735956	    -33.65682916	     98.37023324	     86.25537029	     -3.30612751	    -14.64306221	    -41.97778811	     99.65504319	     82.76229231
      4.39583330	    -18.88823668	     -1.69449183	      3.33482160	      0.54956910	      0.85513314	      0.03765027	     39.92843226	     -0.13140518	      8.30786871	     40.68509198	      0.71008881	      5.48743433	    -29.60956722	     -7.49999987	     40.89448811	     -5.28462797	      5.22072235	     39.94743852	      0.69721433	     -3.89886712	    -31.19582619	     -7.49999987	    -24.84580821	      1.03183924	      1.53949580	      2.07791773	    -14.46843881	    -33.92994897	     98.16056334	     83.36936331	     -3.59561806	    -14.24738390	    -42.14274724	     99.77398496	     80.44790684
      4.40000000	    -19.17418217	     -1.64725660	      3.32216156	      0.55259334	      0.85560874	      0.03577575	     39.73042700	     -0.42331235	      8.22628792	     40.15333979	      0.70080799	      5.23292612	    -29.68243884	     -7.49999987	     40.59069647	     -5.08261156	      5.24410312	     39.33141996	      0.68646278	     -4.05395104	    -31.23861065	     -7.49999987	    -23.95173898	      1.19619951	      1.60772361	      1.58213767	    -14.51711654	    -34.34792501	     97.89166867	     81.91612186	     -4.11598514	    -13.41259556	    -42.45381639	     99.77657859	     79.29679712
      4.40416670	    -19.35703435	     -1.56666695	      3.34295305	      0.55350534	      0.86013055	      0.03528993	     39.35647074	     -0.67071528	      8.26528982	     39.40937839	      0.68782341	      4.89203796	    -29.49870037	     -7.49999987	     40.03543618	     -4.89828340	      5.21731598	     38.37125865	      0.66970480	     -4.21361707	    -31.12278267	     -7.49999987	    -23.37923306	      1.24859724	      1.61693327	      1.24884075	    -14.46032832	    -34.79651821	     97.76209089	     81.31461150	     -4.23056281	    -12.83622375	    -42.85695876	     99.74426304	     78.92239181
      4.40833330	    -19.49688099	     -1.51460155	      3.33858463	      0.55613307	      0.86156973	      0.03361104	     38.92346624	     -0.93388921	      8.13596006	     38.61803585	      0.67401188	      4.61523284	    -29.24589104	     -7.49999987	     39.50248861	     -4.70934412	      5.22756497	     37.50502395	      0.65458615	     -4.31133670	    -31.03974824	     -7.49999987	    -22.79232785	      1.37273343	      1.63492939	      0.90071165	    -14.48161211	    -35.19724323	     97.45777383	     80.39769884	     -4.39444435	    -12.45749039	    -43.11087455	     99.62926707	     78.23039692
      4.41250000	    -19.63644596	     -1.49507436	      3.31892098	      0.55756825	      0.86292371	      0.03439827	     38.58045565	     -1.05193043	      8.07044842	     37.94282792	      0.66222727	      4.28775964	    -29.17383866	     -7.49999987	     39.13980069	     -4.69329633	      5.07272862	     36.77160196	      0.64178553	     -4.55203873	    -30.90337909	     -7.49999987	    -22.16731455	      1.40135147	      1.62960308	      0.56029652	    -14.53240286	    -35.55262670	     97.30064138	     79.78141247	     -4.75919519	    -12.29082098	    -43.23465511	     99.67136146	     77.76754461
      4.41666670	    -19.60332225	     -1.43913124	      3.36278302	      0.55985989	      0.86791332	      0.03577216	     37.80035938	     -1.15725974	      8.00989702	     36.83596351	      0.64290885	      3.70595639	    -29.05159153	     -7.49999987	     38.43430843	     -4.69899548	      4.90123268	     35.75537461	      0.62404901	     -4.68099284	    -30.41238465	     -7.49999987	    -21.83464931	      1.37869559	      1.92371151	      0.22162886	    -14.20508900	    -36.78502069	     97.06415825	     87.22027028	     -4.49526839	    -12.15786240	    -43.37846463	     99.22047684	     85.64263917
      4.42083330	    -19.74521323	     -1.43065620	      3.43920337	      0.56053766	      0.86647806	      0.03378546	     37.47541207	     -1.32695410	      7.74569689	     36.09091487	      0.62990529	      3.72979848	    -28.57165020	     -7.49999987	     38.19765622	     -4.66991972	      4.81220137	     35.10197164	      0.61264498	     -5.07250407	    -30.33024854	     -7.49999987	    -21.34880216	      1.35527877	      1.83625110	      0.01779203	    -14.31170332	    -36.88389289	     97.03657433	     85.44491365	     -4.73838446	    -12.26273132	    -43.40571443	     99.52555063	     84.03879365
      4.42500000	    -19.73876762	     -1.41955557	      3.49169783	      0.56292083	      0.86736985	      0.03556829	     36.98024602	     -1.35616598	      7.65311910	     35.43106984	      0.61838883	      3.76529332	    -28.12222631	     -7.49999987	     37.77934030	     -4.76424072	      4.66680584	     34.44366586	      0.60115538	     -5.34277101	    -30.15788781	     -7.49999987	    -21.13062887	      1.26426610	      1.87039236	     -0.22750182	    -14.34226512	    -37.20796447	     97.22258549	     84.03174896	     -4.94568121	    -12.26837317	    -43.67756343	    100.20021137	     82.83029465
      4.42916670	    -19.91960478	     -1.45644031	      3.52673080	      0.56358942	      0.86789750	      0.03456371	     36.78224332	     -1.35759000	      7.61772881	     34.85131106	      0.60827013	      3.38547159	    -28.25136403	     -7.49999987	     37.71662186	     -4.89786228	      4.42958603	     34.01937946	      0.59375018	     -5.36954932	    -29.72571291	     -7.49999987	    -20.56809900	      1.25496439	      1.85851186	     -0.33663716	    -14.43931101	    -37.71142256	     97.04463607	     83.97975685	     -5.01159826	    -12.48932091	    -44.00509680	    100.37430302	     82.82727213
      4.43333330	    -20.11821162	     -1.53700197	      3.53322786	      0.56513419	      0.86890569	      0.03537429	     36.60091040	     -1.30360856	      7.47130335	     34.29986888	      0.59864565	      3.22536769	    -28.06420784	     -7.49999987	     37.62024853	     -5.08819828	      4.26719013	     33.51033355	      0.58486565	     -5.57909550	    -29.54308196	     -7.49999987	    -19.98856547	      1.29117114	      1.83403232	     -0.57916783	    -14.47936930	    -38.05212926	     97.19481113	     83.45795568	     -5.13054346	    -12.68109289	    -44.24410004	    100.78686656	     82.38049476
      4.43750000	    -20.30648919	     -1.59615385	      3.46702509	      0.56602559	      0.87084618	      0.03567957	     36.40309571	     -1.20081714	      7.45606744	     33.68410278	      0.58789850	      2.96330934	    -28.00281179	     -7.49999987	     37.45965010	     -5.31494720	      3.86568912	     32.95862402	      0.57523651	     -5.67043730	    -29.19335765	     -7.49999987	    -19.50915958	      1.34111482	      1.83426965	     -0.71931549	    -14.49973192	    -38.23742510	     97.39732087	     82.86752577	     -5.03697519	    -13.09110784	    -44.51427682	    100.76514242	     81.94129756
